<?xml version="1.0" standalone="no"?>
<!DOCTYPE svg PUBLIC "-//W3C//DTD SVG 20010904//EN"
 "http://www.w3.org/TR/2001/REC-SVG-20010904/DTD/svg10.dtd">
<svg version="1.0" xmlns="http://www.w3.org/2000/svg"
 width="173.000000pt" height="34.000000pt" viewBox="0 0 173.000000 34.000000"
 preserveAspectRatio="xMidYMid meet">

<g transform="translate(0.000000,34.000000) scale(0.100000,-0.100000)"
fill="#000000" stroke="none">
<path d="M10 306 c0 -23 4 -25 53 -28 l52 -3 3 -132 3 -133 29 0 30 0 0 135 0
135 50 0 c47 0 50 2 50 25 l0 25 -135 0 -135 0 0 -24z"/>
<path d="M1240 275 c0 -41 -2 -45 -25 -45 -20 0 -25 -5 -25 -25 0 -20 5 -25
25 -25 25 0 25 -1 25 -85 l0 -85 30 0 30 0 0 85 c0 84 0 85 25 85 20 0 25 5
25 25 0 20 -5 25 -25 25 -23 0 -25 4 -25 45 0 43 -1 45 -30 45 -29 0 -30 -2
-30 -45z"/>
<path d="M297 210 c-30 -23 -47 -74 -40 -114 3 -14 21 -40 41 -57 32 -28 40
-31 85 -26 64 6 97 37 104 101 5 42 3 48 -30 81 -31 31 -41 35 -85 35 -35 0
-57 -6 -75 -20z m113 -50 c23 -23 26 -49 7 -74 -16 -21 -60 -24 -82 -6 -33 27
-6 100 37 100 10 0 27 -9 38 -20z"/>
<path d="M530 119 l0 -109 35 0 35 0 0 80 c0 78 1 80 27 86 39 10 53 -16 53
-98 l0 -68 30 0 29 0 3 76 c2 60 7 79 21 88 12 8 22 8 35 0 13 -9 18 -28 20
-88 l3 -76 29 0 30 0 0 88 c0 80 -2 91 -23 110 -26 25 -95 30 -115 10 -10 -10
-17 -10 -31 -1 -10 6 -55 11 -100 11 l-81 0 0 -109z"/>
<path d="M957 204 c-49 -49 -47 -125 5 -169 31 -26 75 -32 109 -15 13 7 19 7
19 0 0 -5 14 -10 30 -10 l30 0 0 110 0 110 -30 0 c-16 0 -30 -5 -30 -10 0 -7
-6 -7 -19 0 -36 19 -86 12 -114 -16z m118 -40 c10 -10 15 -29 13 -47 -7 -69
-90 -66 -96 3 -5 53 46 80 83 44z"/>
<path d="M1421 214 c-46 -33 -60 -112 -28 -154 51 -68 155 -67 197 2 31 51 26
94 -14 134 -29 29 -41 34 -83 34 -29 0 -58 -7 -72 -16z m110 -55 c15 -15 19
-28 14 -47 -9 -36 -18 -45 -49 -45 -35 0 -56 20 -56 54 0 55 52 77 91 38z"/>
<path d="M1668 79 c-33 -19 -15 -69 24 -69 9 0 22 9 28 21 9 16 8 25 -6 40
-20 22 -22 22 -46 8z"/>
</g>
</svg>
